<svg xmlns="http://www.w3.org/2000/svg" viewBox="0 0 30 33.24"><defs><style>.cls-1{fill:#fff;}</style></defs><title>Recurso 26</title><g id="Capa_2" data-name="Capa 2"><g id="Capa_1-2" data-name="Capa 1"><path class="cls-1" d="M4,7.1H1.06C.49,7.11,0,7,0,6.31s.5-.75,1-.75c2.24,0,4.48,0,6.84,0v-2A3.21,3.21,0,0,1,11.45,0h7.16a3.21,3.21,0,0,1,3.51,3.54v2H23c2,0,4,0,6,0,.58,0,1.07.1,1.06.81s-.51.74-1,.73h-3c-.12,1.14-.25,2.23-.35,3.32q-.89,9.07-1.76,18.14c0,.61-.11,1.23-.16,1.84a3,3,0,0,1-3,2.82q-5.7,0-11.38,0a3.05,3.05,0,0,1-3-2.88l-2.22-23S4.07,7.26,4,7.1Zm1.67.05c0,.15,0,.27,0,.39Q6.76,18.81,7.86,30.08a1.6,1.6,0,0,0,1.67,1.61c3.64,0,7.29,0,10.93,0a1.58,1.58,0,0,0,1.67-1.53c.22-2.1.41-4.21.61-6.31q.57-5.84,1.13-11.67c.16-1.66.31-3.32.47-5ZM9.47,5.51H20.53c0-.86,0-1.67,0-2.48A1.5,1.5,0,0,0,19,1.6q-4,0-8,0A1.51,1.51,0,0,0,9.47,3.09C9.44,3.88,9.47,4.66,9.47,5.51Z"/><path class="cls-1" d="M15.8,19.39v7.75c0,.22.07.5,0,.65s-.5.67-.73.65-.58-.39-.8-.67c-.09-.12,0-.38,0-.58V11.62a4.34,4.34,0,0,1,0-.51c.06-.47.3-.8.8-.8a.77.77,0,0,1,.78.82c0,.69,0,1.38,0,2.07Z"/><path class="cls-1" d="M11.43,19.55c.13,2.53.25,5.06.38,7.58,0,.22.09.5,0,.65s-.46.64-.72.66-.62-.32-.76-.59a2.39,2.39,0,0,1-.11-1q-.37-7.62-.73-15.24c0-.13,0-.25,0-.37,0-.52.23-.88.76-.91s.79.34.82.83c.08,1.28.16,2.56.19,3.83,0,1.53,0,3.05,0,4.57Z"/><path class="cls-1" d="M20.14,19.27c-.12,2.58-.24,5.15-.35,7.73,0,.22,0,.44-.05.66,0,.51-.28.86-.83.82s-.76-.41-.73-.92c.05-1.35.12-2.7.19-4L18.91,12c0-.27,0-.54,0-.81,0-.52.25-.94.85-.89s.76.46.74,1c-.06,1.25-.12,2.5-.19,3.75Z"/></g></g></svg>