<svg xmlns="http://www.w3.org/2000/svg" viewBox="0 0 50 45.56"><defs><style>.cls-1{fill:#fff;}</style></defs><title>Recurso 23</title><g id="Capa_2" data-name="Capa 2"><g id="Capa_1-2" data-name="Capa 1"><path class="cls-1" d="M50,24.46c-.22,1.27-.38,2.55-.68,3.8A22.47,22.47,0,0,1,30.38,45.35C20.59,46.51,13,42.77,7.61,34.48a1.48,1.48,0,0,1,.3-2.24c.76-.5,1.61-.24,2.2.73A19.51,19.51,0,0,0,20.25,41.4a19.16,19.16,0,0,0,15.48-.7A19.37,19.37,0,0,0,46.38,27.9,19.87,19.87,0,0,0,10.19,12.5c-.53.87-1.08,1.2-1.76,1.05a1.46,1.46,0,0,1-.91-2.32A22.83,22.83,0,0,1,12.1,5.69,22,22,0,0,1,24,.22,22.27,22.27,0,0,1,43.53,6.91,22.22,22.22,0,0,1,49.83,20c.06.43.11.86.17,1.3Z"/><path class="cls-1" d="M0,22.38a9.52,9.52,0,0,1,1.1-1.1c1.49-1.1,3-2.14,4.52-3.22a1.66,1.66,0,0,1,1.85-.33,1.67,1.67,0,0,1,.83,1.7v6.73a1.68,1.68,0,0,1-.83,1.7,1.64,1.64,0,0,1-1.85-.34c-1.5-1.07-3-2.12-4.52-3.21A10.38,10.38,0,0,1,0,23.21Z"/><path class="cls-1" d="M11.25,24.27V21.36c.26,0,.5,0,.74,0H33.43c.21,0,.42,0,.63,0a1.45,1.45,0,0,1,0,2.9,3.87,3.87,0,0,1-.48,0H11.25Z"/></g></g></svg>