<svg xmlns="http://www.w3.org/2000/svg" viewBox="0 0 50 50"><defs><style>.cls-1{fill:#fff;}</style></defs><title>Recurso 21</title><g id="Capa_2" data-name="Capa 2"><g id="Capa_1-2" data-name="Capa 1"><path class="cls-1" d="M0,25A25,25,0,1,1,25,50,25,25,0,0,1,0,25Zm47.78,0A22.81,22.81,0,1,0,24.93,47.78,22.8,22.8,0,0,0,47.78,25.06Z"/><path class="cls-1" d="M35.12,36.65c-.25,0-.51.05-.77.05L16,36.72c-1.1,0-1.13,0-.8-1.12a11.45,11.45,0,0,1,5.65-7.28,1.57,1.57,0,0,1,1.5-.11,6.87,6.87,0,0,0,5.81-.15,1.47,1.47,0,0,1,1-.15C32.07,28.89,35.15,33.4,35.12,36.65Z"/><path class="cls-1" d="M5.82,33c.89-3.93,2.78-7,6.39-8.71a1,1,0,0,1,.75-.1,7.28,7.28,0,0,0,5.82.19l1.62,2.42c-1.2,1-2.48,2-3.6,3.12A20.33,20.33,0,0,0,15,32.44c-.17.23-.47.52-.72.52C11.51,33,8.74,33,5.82,33Z"/><path class="cls-1" d="M25,27.25a5.09,5.09,0,1,1,.09-10.17A5.09,5.09,0,1,1,25,27.25Z"/><path class="cls-1" d="M29.77,26.7l1.46-2.29a7.3,7.3,0,0,0,6-.41,1.38,1.38,0,0,1,1,.16A10.72,10.72,0,0,1,43.72,31c.19.58.29,1.2.46,1.94H41.29c-1.67,0-3.34,0-5,0a1.12,1.12,0,0,1-.85-.41A11.64,11.64,0,0,0,29.77,26.7Z"/><path class="cls-1" d="M16,23.59a5.28,5.28,0,0,1-5.15-4.5,5.2,5.2,0,0,1,3.78-5.74,5.26,5.26,0,0,1,6.22,3,.86.86,0,0,1-.23,1.16A5.84,5.84,0,0,0,18.57,22a1.06,1.06,0,0,1-1,1.27C17.06,23.42,16.53,23.5,16,23.59Z"/><path class="cls-1" d="M33.73,23.54c-.15,0-.45,0-.75-.06-1.33-.17-1.44-.31-1.5-1.63a6.05,6.05,0,0,0-2.2-4.53A.78.78,0,0,1,29,16.26a5.23,5.23,0,1,1,4.72,7.28Z"/></g></g></svg>