<svg xmlns="http://www.w3.org/2000/svg" viewBox="0 0 30 33.39"><defs><style>.cls-1{fill:#fff;}</style></defs><title>Recurso 25</title><g id="Capa_2" data-name="Capa 2"><g id="Capa_1-2" data-name="Capa 1"><path class="cls-1" d="M21.3,30.55V17.12a1.45,1.45,0,0,1,1-1.47,1.38,1.38,0,0,1,1.81,1.23,2.62,2.62,0,0,1,0,.28V31.8a1.65,1.65,0,0,1-.23.93,1.36,1.36,0,0,1-1.12.65h-.21c-7,0-14,0-21,0A1.49,1.49,0,0,1,0,31.82q0-14,0-27.9A1.6,1.6,0,0,1,.34,2.85a1.32,1.32,0,0,1,1-.49H17a1.38,1.38,0,0,1,1.35.89A1.3,1.3,0,0,1,18,4.73a1.45,1.45,0,0,1-1,.44H2.84V30.55Z"/><path class="cls-1" d="M26.47,0A.68.68,0,0,1,27,.23c.91.9,1.82,1.8,2.72,2.71a.9.9,0,0,1,0,1.31l-5,5q-5.3,5.3-10.61,10.59a1.65,1.65,0,0,1-.54.36L9.35,21.84a.8.8,0,0,1-.95-.17.83.83,0,0,1-.22-1c.42-1.07.88-2.13,1.24-3.22A6.33,6.33,0,0,1,11.09,15C16,10.1,20.86,5.21,25.74.33A1,1,0,0,1,26.47,0ZM10.56,19.43l.18-.06c.64-.25,1.29-.5,1.92-.76a1.29,1.29,0,0,0,.45-.29L27.72,3.8a1.29,1.29,0,0,1,.18-.13L26.44,2.2l-.11.1L11.79,16.76a1.89,1.89,0,0,0-.48.74C11.08,18.13,10.82,18.76,10.56,19.43Z"/></g></g></svg>