<svg xmlns="http://www.w3.org/2000/svg" viewBox="0 0 50 50.02"><defs><style>.cls-1{fill:#fff;}</style></defs><title>Recurso 20</title><g id="Capa_2" data-name="Capa 2"><g id="Capa_1-2" data-name="Capa 1"><path class="cls-1" d="M13.48,30.46a9.89,9.89,0,0,0-4.67,1L1.69,34.64a1.26,1.26,0,0,1-.95.1,1.08,1.08,0,0,1-.09-2c.69-.33,1.37-.66,2.07-1,2.32-1,4.59-2.07,7-2.89a12,12,0,0,1,8.5.25,7.6,7.6,0,0,1,3.15,2.27,4.2,4.2,0,0,0,2.32,1.46q.68.15,1.35.36a.89.89,0,0,0,.79-.14c2-1.28,4.06-2.58,6.13-3.81a6.21,6.21,0,0,1,4.83-.79,4.64,4.64,0,0,1,2,1.06.41.41,0,0,0,.46.08,5,5,0,0,1,4.42.6,3.2,3.2,0,0,1,.61.55.32.32,0,0,0,.43.12,5.73,5.73,0,0,1,2.24-.36A3.22,3.22,0,0,1,50,33.8a3.76,3.76,0,0,1-1.07,2.36A11.49,11.49,0,0,1,46.58,38L31.94,47.52c-.77.5-1.57,1-2.37,1.43a7.06,7.06,0,0,1-6.54.49c-1.54-.63-3-1.4-4.51-2.14-2.1-1-4.18-2.11-6.27-3.17a2.17,2.17,0,0,0-2.31.14c-1,.64-2,1.28-3,1.9a1.07,1.07,0,0,1-1.65-.59,1,1,0,0,1,.42-1.18C6.8,43.68,7.9,43,9,42.29a4.1,4.1,0,0,1,4.13-.13c1.71.84,3.41,1.71,5.11,2.57,1.46.74,2.9,1.5,4.38,2.19a11.81,11.81,0,0,0,2.22.81,4.38,4.38,0,0,0,3.48-.61C30.89,45.55,33.45,44,36,42.35,39.35,40.18,42.69,38,46,35.77A4.87,4.87,0,0,0,47.6,34.3a1,1,0,0,0-.84-1.6,3.72,3.72,0,0,0-1.91.42,26.44,26.44,0,0,0-2.49,1.4c-3.09,2-6.16,4-9.25,6a4.59,4.59,0,0,1-2.52.72c-2.63,0-5.27,0-7.91-.07a25.71,25.71,0,0,1-5.55-1,1.07,1.07,0,0,1-.78-1.35,1.11,1.11,0,0,1,1.34-.75c1.14.24,2.28.5,3.43.72a20,20,0,0,0,4,.33c1.73,0,3.45,0,5.18,0a5.06,5.06,0,0,0,1.42-.29,1.24,1.24,0,0,0,.89-1.25,1.36,1.36,0,0,0-.83-1.33,4.86,4.86,0,0,0-1.92-.37c-1.37-.08-2.74-.15-4.1-.3a16.77,16.77,0,0,1-3.73-1,6.38,6.38,0,0,1-2.63-2,5.47,5.47,0,0,0-2.86-1.86,20.3,20.3,0,0,0-2.19-.33A6.53,6.53,0,0,0,13.48,30.46Zm21.32,6.4,7.51-4.92a6.38,6.38,0,0,0-.59-.26,3,3,0,0,0-2.57.36c-.83.49-1.66,1-2.48,1.53l-2.62,1.62Zm2.12-6-.14-.09c-.1,0-.19-.09-.29-.12a4.19,4.19,0,0,0-3.5.52c-1.3.73-2.55,1.57-3.82,2.36a1,1,0,0,0-.16.15h.2c.85.08,1.7.17,2.56.24a.55.55,0,0,0,.33-.09c.69-.41,1.37-.84,2-1.26Z"/><path class="cls-1" d="M25,28.25c-.52,0-1,0-1.58,0a1.1,1.1,0,0,1-1.16-1c-.16-1-.33-2-.49-2.94a.43.43,0,0,0-.32-.39,7.47,7.47,0,0,1-1-.4.38.38,0,0,0-.44.05l-2.43,1.67A1.09,1.09,0,0,1,16,25.12c-.71-.72-1.43-1.44-2.14-2.17a1.08,1.08,0,0,1-.12-1.53c.57-.8,1.15-1.6,1.73-2.39a.41.41,0,0,0,0-.47,9.71,9.71,0,0,1-.41-1,.35.35,0,0,0-.32-.27l-2.87-.52a1.11,1.11,0,0,1-1-1.25c0-1,0-2,0-3a1.07,1.07,0,0,1,1-1.14l2.91-.47a.38.38,0,0,0,.36-.3,8.05,8.05,0,0,1,.43-1,.36.36,0,0,0-.05-.43c-.55-.78-1.08-1.57-1.62-2.36a1.12,1.12,0,0,1,.15-1.67L16.16,3a1.1,1.1,0,0,1,1.6-.14l2.35,1.69a.38.38,0,0,0,.46.06,7.49,7.49,0,0,1,1-.41.37.37,0,0,0,.28-.34l.51-2.84a1.11,1.11,0,0,1,1.26-1h3a1.12,1.12,0,0,1,1.22,1.06c.15,1,.31,1.9.45,2.85a.4.4,0,0,0,.32.38,9.24,9.24,0,0,1,1,.41.35.35,0,0,0,.41,0L32.38,3A1.11,1.11,0,0,1,34,3.11l2.14,2.17a1.08,1.08,0,0,1,.13,1.51L34.52,9.24a.38.38,0,0,0-.05.44,8,8,0,0,1,.39,1,.42.42,0,0,0,.39.34c1,.15,1.93.32,2.89.48a1.11,1.11,0,0,1,1,1.2c0,1,0,2.07,0,3.1a1.08,1.08,0,0,1-.94,1.13l-3,.51a.4.4,0,0,0-.37.29,6.15,6.15,0,0,1-.4.95.41.41,0,0,0,.06.49c.57.79,1.13,1.58,1.69,2.38a1.09,1.09,0,0,1-.15,1.6l-2.16,2.14a1.1,1.1,0,0,1-1.52.12c-.82-.58-1.64-1.16-2.45-1.75a.39.39,0,0,0-.44,0,8,8,0,0,1-1,.39.44.44,0,0,0-.32.38c-.15,1-.32,1.94-.49,2.91a1.09,1.09,0,0,1-1.19,1H25Zm.68-2.19.06-.29c.14-.84.29-1.68.42-2.52a1.22,1.22,0,0,1,.93-1,18.66,18.66,0,0,0,2.13-.87,1.21,1.21,0,0,1,1.34.08l.86.62,1.49,1.05,1-1a2.3,2.3,0,0,1-.15-.23l-1.5-2.11a1.18,1.18,0,0,1-.08-1.33,16.12,16.12,0,0,0,.89-2.1,1.26,1.26,0,0,1,1.09-.95c.86-.13,1.72-.29,2.58-.43.18,0,.24-.09.23-.27s0-.61,0-.91-.06-.3-.27-.33L34.15,13a1.23,1.23,0,0,1-1-1,20.12,20.12,0,0,0-.86-2.1,1.22,1.22,0,0,1,.08-1.37C32.71,8,33.09,7.5,33.47,7c.18-.24.35-.49.51-.72l-1-1c-.74.53-1.51,1.06-2.26,1.61a1.22,1.22,0,0,1-1.41.08A20.73,20.73,0,0,0,27.17,6a1.19,1.19,0,0,1-.9-1c-.13-.86-.28-1.72-.42-2.58,0-.09-.11-.23-.17-.23-.43,0-.85,0-1.29,0,0,.13-.05.25-.07.37L23.87,5a1.07,1.07,0,0,1-.82.92,9.07,9.07,0,0,0-2.33,1,1,1,0,0,1-1.17-.06l-.45-.32L17.16,5.14l-1,1,1.62,2.35a1.17,1.17,0,0,1,.06,1.26c-.35.73-.66,1.47-.94,2.23a1.18,1.18,0,0,1-1,.85l-2.61.42c-.1,0-.24.12-.24.19,0,.42,0,.83,0,1.26l.31.07,2.57.47a1.17,1.17,0,0,1,.93.85c.27.76.58,1.51.91,2.25a1.15,1.15,0,0,1-.07,1.26l-1,1.35c-.25.34-.49.67-.75,1.05.27.26.54.49.78.75a.32.32,0,0,0,.5.06c.71-.51,1.43-1,2.15-1.49a1.2,1.2,0,0,1,1.29-.07c.71.34,1.44.65,2.18.92a1.21,1.21,0,0,1,.89,1c.15.94.32,1.87.48,2.82Z"/><path class="cls-1" d="M25,19.63a5.45,5.45,0,1,1,5.44-5.44A5.44,5.44,0,0,1,25,19.63Zm-3.29-5.45A3.29,3.29,0,1,0,25,10.9,3.3,3.3,0,0,0,21.69,14.18Z"/></g></g></svg>