<svg xmlns="http://www.w3.org/2000/svg" viewBox="0 0 50 38.94"><defs><style>.cls-1{fill:#fff;}</style></defs><title>Recurso 19</title><g id="Capa_2" data-name="Capa 2"><g id="Capa_1-2" data-name="Capa 1"><path class="cls-1" d="M25,38.94H2a1.92,1.92,0,0,1-2-2c0-2.55,0-5.09,0-7.64V4.81A1.85,1.85,0,0,1,1.84,2.94c.61,0,1.23,0,1.84,0a.64.64,0,0,0,.66-.37c.25-.51.51-1,.77-1.51C5.64,0,5.64,0,6.8,0h7.59a.77.77,0,0,1,.76.42c.29.53.56,1.07.84,1.61.47.92.47.9,1.5.9,3.29,0,6.58,0,9.87,0H46.59c.51,0,1,0,1.53,0A1.88,1.88,0,0,1,50,4.77v32.1a1.89,1.89,0,0,1-1.42,2,4.07,4.07,0,0,1-.79.08H25Zm-.11-2.75H45.92a1.93,1.93,0,0,0,1.83-1.8c0-1.12,0-2.24,0-3.36,0-.85,0-1.7,0-2.55s0-1.69,0-2.54,0-1.7,0-2.55,0-1.69,0-2.54,0-1.7,0-2.55,0-1.69,0-2.54,0-1.7,0-2.55,0-1.69,0-2.54,0-1.7,0-2.55a2,2,0,0,0-1.95-2c-2.89,0-5.78,0-8.66,0H4A2,2,0,0,0,2,8c0,2.74,0,5.47,0,8.21V34.08a2,2,0,0,0,2.12,2.11Z"/><path class="cls-1" d="M13.51,26.2a8.33,8.33,0,1,1,8.31-8.32H13.51Z"/><path class="cls-1" d="M5.74,32.66V31.14H44.9v1.52Z"/><path class="cls-1" d="M15,27.64V19.35h8.3A8.24,8.24,0,0,1,15,27.64Z"/><path class="cls-1" d="M44.5,11.42V25.76H40.92V11.42Z"/><path class="cls-1" d="M39.09,25.77H35.52V15h3.57Z"/><path class="cls-1" d="M33.69,25.77H30.14V18.61h3.55Z"/></g></g></svg>