<svg xmlns="http://www.w3.org/2000/svg" viewBox="0 0 100 100"><defs><style>.cls-1{fill:#069;}</style></defs><title>usuario_1</title><g id="Capa_2" data-name="Capa 2"><g id="Capa_1-2" data-name="Capa 1"><path class="cls-1" d="M52.44,100H47.67l-3.15-.31a48.72,48.72,0,0,1-18.36-5.76A49.69,49.69,0,0,1,6.72,75,48.85,48.85,0,0,1,.31,55.47c-.11-1-.21-2-.31-3V47.56c0-.2.08-.4.1-.6a44.39,44.39,0,0,1,1.16-8.12A49.67,49.67,0,0,1,26.9,5.68,47.56,47.56,0,0,1,44.58.3l3-.3h4.88a1.38,1.38,0,0,0,.6.1A48,48,0,0,1,64.75,2.22,49.63,49.63,0,0,1,90.66,21a48.79,48.79,0,0,1,9,23.63c.11,1,.21,2,.31,3v4.88c0,.2-.09.4-.1.6a46.91,46.91,0,0,1-2.18,11.87A49.64,49.64,0,0,1,75.19,93.16a48,48,0,0,1-19.77,6.53ZM50,95.82A45.82,45.82,0,1,0,4.18,50,45.83,45.83,0,0,0,50,95.82Z"/><path class="cls-1" d="M40.16,50.82a17.35,17.35,0,0,1-7.68-14.53A16.91,16.91,0,0,1,37.8,23.7,17.55,17.55,0,1,1,59.86,50.82c.1.17.3.19.46.26q13.42,6.11,16,20.63A20.07,20.07,0,0,1,76.55,76a4.41,4.41,0,0,1-.08.72,1.78,1.78,0,0,1-1.82,1.67,2,2,0,0,1-2-1.57A15.54,15.54,0,0,1,72.38,74a21.15,21.15,0,0,0-3.87-10.5,23.74,23.74,0,0,0-13.72-9.79,19.28,19.28,0,0,0-14.11,1.71A24,24,0,0,0,28.4,69.91a18.19,18.19,0,0,0-.84,5.58,4.36,4.36,0,0,1-.25,1.64,1.91,1.91,0,0,1-2,1.29,1.77,1.77,0,0,1-1.71-1.55,10.8,10.8,0,0,1-.07-3.16,26.69,26.69,0,0,1,16.12-22.6A1.33,1.33,0,0,0,40.16,50.82ZM63.28,36.35A13.28,13.28,0,1,0,49.86,49.56,13.29,13.29,0,0,0,63.28,36.35Z"/></g></g></svg>