<svg xmlns="http://www.w3.org/2000/svg" viewBox="0 0 28.52 17.82"><defs><style>.cls-1{fill:#fff;}</style></defs><title>Recurso 24</title><g id="Capa_2" data-name="Capa 2"><g id="Capa_1-2" data-name="Capa 1"><path class="cls-1" d="M0,8.86A15.9,15.9,0,0,1,5.92,2.27c6.75-4.12,17.85-3,22.49,6.44,0,.06.08.1.11.15V9a16.25,16.25,0,0,1-4.62,5.69,15.3,15.3,0,0,1-10.11,3.13A15.13,15.13,0,0,1,.57,10C.37,9.69.19,9.34,0,9Zm14.25-7.1a13.61,13.61,0,0,0-12,6.68.8.8,0,0,0,0,1A13.21,13.21,0,0,0,12.83,16c5.74.47,10.31-1.6,13.45-6.55a.84.84,0,0,0,0-1A13.63,13.63,0,0,0,14.25,1.76Z"/><path class="cls-1" d="M14.23,3.63V8.81L18,5.09A5.33,5.33,0,1,1,9,7.82,5.26,5.26,0,0,1,14.23,3.63Z"/></g></g></svg>