<?xml version="1.0" standalone="no"?>
<!DOCTYPE svg PUBLIC "-//W3C//DTD SVG 1.1//EN" "http://www.w3.org/Graphics/SVG/1.1/DTD/svg11.dtd" >
<svg xmlns="http://www.w3.org/2000/svg">
<metadata>Generated by IcoMoon</metadata>
<defs>
<font id="icomoon" horiz-adv-x="1024">
<font-face units-per-em="1024" ascent="960" descent="-64" />
<missing-glyph horiz-adv-x="1024" />
<glyph unicode="&#x20;" horiz-adv-x="512" d="" />
<glyph unicode="&#xe900;" glyph-name="back" horiz-adv-x="1062" d="M512-64c-0.079 0-0.172-0.001-0.265-0.001-15.623 0-29.755 6.383-39.931 16.682l-0.005 0.006-455.111 455.111c-5.276 4.943-9.415 11.032-12.026 17.877l-0.11 0.328c-2.88 6.482-4.557 14.044-4.557 21.997s1.677 15.515 4.696 22.351l-0.14-0.354c2.721 7.172 6.86 13.262 12.11 18.18l0.026 0.025 455.111 455.111c10.132 9.46 23.779 15.268 38.782 15.268 31.419 0 56.889-25.47 56.889-56.889 0-15.004-5.808-28.651-15.299-38.815l0.031 0.033-358.021-358.021h810.856c31.419 0 56.889-25.47 56.889-56.889s-25.47-56.889-56.889-56.889v0h-810.856l358.021-358.021c10.28-10.292 16.637-24.505 16.637-40.201s-6.357-29.909-16.638-40.202l0.001 0.001c-10.182-10.305-24.314-16.688-39.936-16.688-0.093 0-0.186 0-0.279 0.001h0.014z" />
<glyph unicode="&#xe901;" glyph-name="box" horiz-adv-x="979" d="M22.599 689.813l451.986-200.883 30.132 69.305-451.986 200.883zM527.317-28.846v552.428h-75.331v-552.428zM504.718 488.93l451.986 200.883-30.132 69.305-451.986-200.883zM489.652-63.498c-9.978 0.096-19.457 2.117-28.121 5.708l0.5-0.183-421.854 187.825c-23.858 10.696-40.177 34.237-40.177 61.59 0 0.064 0 0.128 0 0.192v-0.010 513.256c0 0.054 0 0.118 0 0.182 0 27.353 16.319 50.894 39.751 61.419l0.426 0.171 421.854 187.825c8.146 3.573 17.641 5.653 27.621 5.653s19.475-2.080 28.075-5.829l-0.453 0.176 424.365-187.825c23.858-10.696 40.177-34.237 40.177-61.59 0-0.064 0-0.128 0-0.192v0.010-513.256c0-0.054 0-0.118 0-0.182 0-27.353-16.319-50.894-39.751-61.419l-0.426-0.171-421.854-187.825c-8.391-3.507-18.141-5.545-28.367-5.545-0.621 0-1.24 0.008-1.857 0.022l0.092-0.002zM75.331 197.148l414.321-184.812 414.321 184.812v502.207l-414.321 184.812-414.321-184.812zM715.645 385.475c-20.689 0.279-37.386 16.977-37.665 37.639v175.799l-429.387 191.341c-13.529 6.067-22.783 19.418-22.783 34.93 0 5.532 1.177 10.788 3.293 15.533l-0.097-0.242c5.883 13.601 19.185 22.946 34.67 22.946 5.636 0 10.983-1.238 15.784-3.457l-0.233 0.097 434.409-193.35c23.858-10.696 40.177-34.237 40.177-61.59 0-0.064 0-0.128 0-0.192v0.010-181.799c-0.283-20.862-17.262-37.666-38.164-37.666-0.001 0-0.002 0-0.003 0v0zM682.499 598.913v0z" />
<glyph unicode="&#xe902;" glyph-name="cancel" d="M959.893-64.855c-0.089 0-0.194-0.001-0.299-0.001-17.605 0-33.53 7.192-44.997 18.799l-0.006 0.006-402.591 403.446-402.591-402.591c-11.501-11.794-27.547-19.11-45.302-19.11s-33.801 7.315-45.289 19.097l-0.013 0.013c-11.584 11.598-18.748 27.614-18.748 45.302s7.164 33.704 18.749 45.303l402.59 402.59-402.591 402.591c-11.584 11.598-18.748 27.614-18.748 45.302s7.164 33.704 18.749 45.303l-0.001-0.001c11.501 11.794 27.547 19.11 45.302 19.11s33.801-7.315 45.289-19.097l402.604-402.604 402.591 402.591c11.735 12.569 28.403 20.404 46.901 20.404 35.405 0 64.107-28.702 64.107-64.107 0-18.498-7.835-35.166-20.367-46.867l-0.037-0.034-402.591-402.591 402.591-402.591c11.794-11.501 19.11-27.547 19.11-45.302s-7.315-33.801-19.097-45.289l-0.013-0.013c-11.131-12.104-27.043-19.662-44.72-19.662-0.205 0-0.409 0.001-0.613 0.003h0.031z" />
<glyph unicode="&#xe903;" glyph-name="clients" horiz-adv-x="1301" d="M816.432-64c-22.803 0.308-41.206 18.711-41.513 41.484v55.38c0 191.061-154.885 345.946-345.946 345.946s-345.946-154.885-345.946-345.946v0-55.351c-0.308-22.803-18.711-41.206-41.484-41.513h-0.029c-22.803 0.308-41.206 18.711-41.513 41.484v55.38c0 236.915 192.058 428.973 428.973 428.973s428.973-192.058 428.973-428.973v0-55.351c-0.308-22.803-18.711-41.206-41.484-41.513h-0.029zM1259.243 240.432c-22.803 0.308-41.206 18.711-41.513 41.484v27.705c0 129.921-105.322 235.243-235.243 235.243s-235.243-105.322-235.243-235.243v0c0-22.927-18.586-41.514-41.514-41.514s-41.514 18.586-41.514 41.514v0c0 175.776 142.494 318.27 318.27 318.27s318.27-142.494 318.27-318.27v0-27.676c-0.308-22.803-18.711-41.206-41.484-41.513h-0.029zM428.973 378.811c-145.206 0-262.919 117.713-262.919 262.919s117.713 262.919 262.919 262.919c145.206 0 262.919-117.713 262.919-262.919v0c0-145.206-117.713-262.919-262.919-262.919v0zM428.973 821.622c-99.352 0-179.892-80.54-179.892-179.892s80.54-179.892 179.892-179.892c99.352 0 179.892 80.54 179.892 179.892v0c-0.314 99.225-80.667 179.578-179.862 179.892h-0.030zM982.486 544.865c-114.636 0-207.568 92.931-207.568 207.568s92.931 207.568 207.568 207.568c114.636 0 207.568-92.931 207.568-207.568v0c0-114.636-92.931-207.568-207.568-207.568v0zM982.486 876.973c-68.782 0-124.541-55.759-124.541-124.541s55.759-124.541 124.541-124.541c68.782 0 124.541 55.759 124.541 124.541v0c0 68.782-55.759 124.541-124.541 124.541v0z" />
<glyph unicode="&#xe904;" glyph-name="clock" d="M797.767 412.279h-285.767c-19.621 0.265-35.456 16.1-35.721 35.696v285.792c0 19.728 15.993 35.721 35.721 35.721s35.721-15.993 35.721-35.721v0-250.047h250.047c19.728 0 35.721-15.993 35.721-35.721s-15.993-35.721-35.721-35.721v0zM512-64c-282.77 0-512 229.23-512 512s229.23 512 512 512c282.77 0 512-229.23 512-512v0c-0.271-282.661-229.339-511.729-511.974-512h-0.026zM512 888.558c-243.314 0-440.558-197.245-440.558-440.558s197.245-440.558 440.558-440.558c243.314 0 440.558 197.245 440.558 440.558v0c-0.271 243.204-197.353 440.287-440.532 440.558h-0.026z" />
<glyph unicode="&#xe905;" glyph-name="confirm" horiz-adv-x="1380" d="M422.957-64c-0.092 0-0.202-0.001-0.311-0.001-18.34 0-34.93 7.493-46.876 19.584l-0.006 0.007-356.174 356.174c-11.105 11.894-17.924 27.914-17.924 45.527 0 36.883 29.9 66.783 66.783 66.783 17.613 0 33.634-6.818 45.566-17.96l-0.039 0.036 308.981-308.981 843.242 843.242c11.894 11.105 27.914 17.924 45.527 17.924 36.883 0 66.783-29.9 66.783-66.783 0-17.613-6.818-33.634-17.96-45.566l0.036 0.039-890.435-890.435c-11.952-12.098-28.542-19.59-46.882-19.59-0.109 0-0.219 0-0.328 0.001h0.017z" />
<glyph unicode="&#xe906;" glyph-name="cuil" horiz-adv-x="1112" d="M923.701-64h-735.179c-79.756 0-144.41 64.655-144.41 144.41v0 472.615h78.769v-472.615c0-36.253 29.388-65.641 65.641-65.641v0h735.179c36.253 0 65.641 29.388 65.641 65.641v0 472.615h78.769v-472.615c0-79.756-64.655-144.41-144.41-144.41v0zM744.107-24.615h-78.769v315.077c0 36.253-29.388 65.641-65.641 65.641v0h-105.026c-36.253 0-65.641-29.388-65.641-65.641v0-315.077h-78.769v315.077c0 79.756 64.655 144.41 144.41 144.41v0h105.026c79.756 0 144.41-64.655 144.41-144.41v0zM960.459 500.513c-2.247-0.050-4.896-0.078-7.551-0.078-33.165 0-65.293 4.436-95.824 12.748l2.551-0.592c-38.501 13.99-71.587 30.275-102.559 49.628l2.26-1.316c-18.478 11.092-31.229 30.098-33.582 52.21l-0.026 0.303-28.882 342.384h255.737c32.47-0.283 59.746-22.192 68.146-52.010l0.121-0.503 88.747-311.401c1.828-5.85 2.882-12.576 2.882-19.548 0-14.276-4.416-27.521-11.957-38.443l0.148 0.227c-10.913-16.427-28.329-27.788-48.49-30.42l-0.347-0.037c-21.892-2.141-47.323-3.362-73.040-3.362-6.446 0-12.875 0.077-19.284 0.229l0.952-0.018zM803.971 625.493c22.576-14.244 48.572-26.998 75.929-36.91l2.84-0.899c26.618-6.056 57.186-9.527 88.565-9.527 20.999 0 41.635 1.554 61.8 4.554l-2.279-0.279-84.546 298.798h-163.315zM556.111 495.262c-41.938 0.812-81.911 8.053-119.353 20.773l2.774-0.818c-37.206 13.231-69.275 29.003-99.154 47.922l2.005-1.186c-20.706 12.245-34.374 34.459-34.374 59.865 0 2.033 0.088 4.046 0.259 6.034l-0.018-0.259 27.832 332.406h440.057l27.832-332.406c0.154-1.73 0.241-3.743 0.241-5.776 0-25.406-13.668-47.62-34.053-59.689l-0.321-0.176c-27.874-17.733-59.943-33.505-93.736-45.664l-3.412-1.072c-34.668-11.902-74.641-19.142-116.19-19.949l-0.388-0.006zM387.545 626.544c21.53-13.535 46.324-25.59 72.429-34.882l2.664-0.827c27.797-10.47 59.927-16.53 93.473-16.53s65.675 6.061 95.355 17.146l-1.882-0.616c28.733 9.978 53.538 22.042 76.61 36.602l-1.516-0.893-21.005 254.687h-295.122zM151.762 500.513c-32.402 0.184-64.114 2.278-95.266 6.174l3.894-0.397c-20.508 2.669-37.924 14.031-48.679 30.204l-0.158 0.253c-7.393 10.695-11.809 23.94-11.809 38.216 0 6.972 1.053 13.698 3.009 20.028l-0.128-0.48 88.747 314.027c8.521 30.321 35.797 52.229 68.234 52.513h255.244l-28.357-343.434c-2.205-22.473-15.013-41.544-33.29-52.339l-0.318-0.174c-28.712-18.037-61.799-34.322-96.574-47.113l-3.726-1.199c-30.016-9.659-64.601-15.559-100.457-16.273l-0.367-0.006zM83.495 585.584c17.891-2.727 38.534-4.284 59.54-4.284 31.372 0 61.933 3.474 91.32 10.057l-2.773-0.522c30.198 10.811 56.193 23.566 80.47 38.805l-1.701-0.996 21.53 252.587h-165.941z" />
<glyph unicode="&#xe907;" glyph-name="dashboard" d="M945.006-64h-866.011c-43.495 0.329-78.665 35.5-78.994 78.963v866.042c0.329 43.495 35.5 78.665 78.963 78.994h866.042c43.495-0.329 78.665-35.5 78.994-78.963v-866.042c-0.329-43.495-35.5-78.665-78.963-78.994h-0.031zM87.771 23.771h848.457v848.457h-848.457zM409.6 916.114h87.771v-468.114h-87.771v468.114zM43.886 491.886h936.229v-87.771h-936.229v87.771z" />
<glyph unicode="&#xe908;" glyph-name="delete" d="M848.082-64h-672.164c-39.034 0.295-70.597 31.859-70.892 70.864v493.649c0 21.752 17.633 39.385 39.385 39.385s39.385-17.633 39.385-39.385v0-485.744h656.41v485.744c0 21.752 17.633 39.385 39.385 39.385s39.385-17.633 39.385-39.385v0-493.621c-0.295-39.034-31.859-70.597-70.864-70.892h-0.028zM406.974 146.051c-21.633 0.292-39.093 17.751-39.384 39.357v315.105c0 21.752 17.633 39.385 39.385 39.385s39.385-17.633 39.385-39.385v0-315.077c-0.292-21.633-17.751-39.093-39.357-39.384h-0.028zM617.026 146.051c-21.633 0.292-39.093 17.751-39.384 39.357v315.105c0 21.752 17.633 39.385 39.385 39.385s39.385-17.633 39.385-39.385v0-315.077c-0.292-21.633-17.751-39.093-39.357-39.384h-0.028zM984.615 671.179h-945.231c-21.752 0-39.385 17.633-39.385 39.385s17.633 39.385 39.385 39.385v0h223.179v139.159c0.295 39.034 31.859 70.597 70.864 70.892h357.115c39.034-0.295 70.597-31.859 70.892-70.864v-139.187h223.179c21.752 0 39.385-17.633 39.385-39.385s-17.633-39.385-39.385-39.385v0zM341.333 749.949h341.333v131.282h-341.333z" />
<glyph unicode="&#xe909;" glyph-name="edit" d="M984.615-64h-945.231c-21.752 0-39.385 17.633-39.385 39.385s17.633 39.385 39.385 39.385v0h945.231c21.752 0 39.385-17.633 39.385-39.385s-17.633-39.385-39.385-39.385v0zM452.135 162.855h-238.408c-21.633 0.292-39.093 17.751-39.384 39.357v238.436c0 0.016 0 0.034 0 0.053 0 25.378 10.229 48.367 26.788 65.069l-0.006-0.007 443.208 442.683c7.126 7.117 16.965 11.518 27.832 11.518s20.706-4.401 27.832-11.519v0l262.564-259.938c7.117-7.126 11.518-16.965 11.518-27.832s-4.401-20.706-11.519-27.832v0l-151.237-148.611-294.072-294.597c-16.696-16.553-39.685-26.782-65.063-26.782-0.019 0-0.037 0-0.056 0h0.003zM253.112 241.625h199.024c3.569 0.070 6.748 1.678 8.914 4.186l0.013 0.015 266.765 266.24-204.275 204.275-266.24-268.341c-2.523-2.179-4.131-5.358-4.201-8.915v-0.012zM579.216 772.004l204.275-204.275 92.948 90.322-204.275 206.901z" />
<glyph unicode="&#xe90a;" glyph-name="eye" horiz-adv-x="1479" d="M739.556 239.407c-115.203 0-208.593 93.39-208.593 208.593s93.39 208.593 208.593 208.593c115.203 0 208.593-93.39 208.593-208.593v0c0-115.203-93.39-208.593-208.593-208.593v0zM739.556 542.815c-52.365 0-94.815-42.45-94.815-94.815s42.45-94.815 94.815-94.815c52.365 0 94.815 42.45 94.815 94.815v0c0 52.365-42.45 94.815-94.815 94.815v0zM739.556-64c-314.785 0-584.059 248.794-730.453 481.659-6.924 9.056-11.094 20.539-11.094 32.996s4.17 23.939 11.191 33.128l-0.097-0.132c166.116 201.007 388.361 476.35 730.453 476.35s564.338-275.342 726.661-476.35c8.145-9.482 13.104-21.907 13.104-35.49 0-11.378-3.48-21.944-9.433-30.691l0.122 0.19c-146.394-232.865-415.668-481.659-730.453-481.659zM127.431 444.207c129.707-188.871 358.779-394.43 612.124-394.43s482.418 205.559 612.124 394.43c-182.044 223.004-358.779 402.015-612.124 402.015s-430.080-179.010-612.124-402.015z" />
<glyph unicode="&#xe90b;" glyph-name="logout" horiz-adv-x="814" d="M617.026 251.077c-0.055 0-0.119 0-0.183 0-10.816 0-20.6 4.419-27.645 11.549l-0.004 0.004c-7.117 7.126-11.518 16.965-11.518 27.832s4.401 20.706 11.519 27.832v0l90.322 90.322h-272.542c-21.752 0-39.385 17.633-39.385 39.385s17.633 39.385 39.385 39.385v0h272.542l-90.322 90.322c-7.722 7.21-12.535 17.45-12.535 28.814 0 21.752 17.633 39.385 39.385 39.385 11.364 0 21.605-4.813 28.793-12.512l0.021-0.023 157.538-157.538c3.653-3.422 6.518-7.638 8.326-12.376l0.076-0.227c1.994-4.487 3.155-9.722 3.155-15.229s-1.161-10.741-3.251-15.474l0.097 0.245c-1.884-4.965-4.749-9.181-8.384-12.586l-0.018-0.017-157.538-157.538c-7.049-7.135-16.833-11.553-27.648-11.553-0.065 0-0.129 0-0.193 0h0.010zM669.538-64h-525.128c-79.756 0-144.41 64.655-144.41 144.41v0 735.179c0 79.756 64.655 144.41 144.41 144.41v0h525.128c79.756 0 144.41-64.655 144.41-144.41v0-52.513c0-21.752-17.633-39.385-39.385-39.385s-39.385 17.633-39.385 39.385v0 52.513c0 36.253-29.388 65.641-65.641 65.641v0h-525.128c-36.253 0-65.641-29.388-65.641-65.641v0-735.179c0-36.253 29.388-65.641 65.641-65.641v0h525.128c36.253 0 65.641 29.388 65.641 65.641v0 52.513c0 21.752 17.633 39.385 39.385 39.385s39.385-17.633 39.385-39.385v0-52.513c0-79.756-64.655-144.41-144.41-144.41v0z" />
<glyph unicode="&#xe90c;" glyph-name="mail" horiz-adv-x="1420" d="M710.194 365.419c-0.259-0.005-0.565-0.008-0.871-0.008-10.396 0-19.979 3.48-27.647 9.338l0.11-0.081-330.323 231.226c-10.522 9.136-17.136 22.534-17.136 37.476 0 27.365 22.184 49.548 49.548 49.548 8.971 0 17.386-2.384 24.644-6.554l-0.241 0.128 301.915-210.746 301.915 210.746c7.017 4.042 15.432 6.426 24.403 6.426 27.365 0 49.548-22.184 49.548-49.548 0-14.943-6.614-28.34-17.075-37.425l-0.061-0.052-330.323-231.226c-7.559-5.778-17.141-9.257-27.537-9.257-0.306 0-0.612 0.003-0.916 0.009l0.046-0.001zM1238.71-64h-1057.032c-100.338 0-181.677 81.34-181.677 181.677v0 660.645c0 100.338 81.34 181.677 181.677 181.677v0h1057.032c100.338 0 181.677-81.34 181.677-181.677v0-660.645c0-100.338-81.34-181.677-181.677-181.677v0zM181.677 860.903c-45.608 0-82.581-36.973-82.581-82.581v0-660.645c0-45.608 36.973-82.581 82.581-82.581v0h1057.032c45.608 0 82.581 36.973 82.581 82.581v0 660.645c0 45.608-36.973 82.581-82.581 82.581v0z" />
<glyph unicode="&#xe90d;" glyph-name="new-service" horiz-adv-x="1129" d="M984.615-64h-840.205c-79.756 0-144.41 64.655-144.41 144.41v0 735.179c0 79.756 64.655 144.41 144.41 144.41v0h840.205c79.756 0 144.41-64.655 144.41-144.41v0-735.179c0-79.756-64.655-144.41-144.41-144.41v0zM144.41 881.231c-36.253 0-65.641-29.388-65.641-65.641v0-735.179c0-36.253 29.388-65.641 65.641-65.641v0h840.205c36.253 0 65.641 29.388 65.641 65.641v0 735.179c0 36.253-29.388 65.641-65.641 65.641v0zM1089.641 671.179h-1050.256c-21.752 0-39.385 17.633-39.385 39.385s17.633 39.385 39.385 39.385v0h1050.256c21.752 0 39.385-17.633 39.385-39.385s-17.633-39.385-39.385-39.385v0zM564.513 146.051c-21.633 0.292-39.093 17.751-39.384 39.357v118.182h-118.154c-21.752 0-39.385 17.633-39.385 39.385s17.633 39.385 39.385 39.385v0h118.154v118.154c0 21.752 17.633 39.385 39.385 39.385s39.385-17.633 39.385-39.385v0-118.154h118.154c21.752 0 39.385-17.633 39.385-39.385s-17.633-39.385-39.385-39.385v0h-118.154v-118.154c-0.292-21.633-17.751-39.093-39.357-39.384h-0.028z" />
<glyph unicode="&#xe90e;" glyph-name="phone" horiz-adv-x="1031" d="M907.317-64c-9.44 0.008-18.629 1.066-27.461 3.063l0.832-0.158c-146.701 31.955-421.704 113.294-611.979 306.958-184.949 182.044-246.922 435.745-267.741 573.246-0.888 5.474-1.395 11.784-1.395 18.212 0 30.164 11.168 57.72 29.594 78.758l-0.118-0.138c23.48 27.052 57.919 44.060 96.329 44.060 0.177 0 0.353 0 0.53-0.001h182.017c0.094 0.001 0.204 0.001 0.315 0.001 15.535 0 28.792-9.756 33.978-23.475l0.083-0.25 71.656-187.37c0.782-2.832 1.232-6.084 1.232-9.441s-0.45-6.609-1.292-9.699l0.060 0.258-34.86-189.791c47.276-104.062 129.299-185.458 230.95-230.759l2.9-1.154 188.339 34.375c2.897 0.91 6.229 1.434 9.683 1.434s6.786-0.524 9.92-1.497l-0.237 0.063 188.339-71.656c13.712-5.397 23.24-18.525 23.24-33.877 0-0.005 0-0.010 0-0.015v0.001-173.814c0-0.022 0-0.048 0-0.074 0-40.611-18.797-76.832-48.166-100.436l-0.251-0.195c-20.718-16.593-47.314-26.629-76.254-26.629-0.086 0-0.171 0-0.257 0h0.013zM126.366 887.376c-0.114 0.001-0.248 0.001-0.383 0.001-16.752 0-31.806-7.272-42.177-18.831l-0.047-0.053c-6.125-7.683-9.827-17.533-9.827-28.248 0-3.545 0.405-6.996 1.172-10.308l-0.060 0.307c16.946-127.334 74.561-365.541 242.080-535.966 178.655-178.171 438.65-255.637 577.604-286.139 3.41-0.858 7.325-1.35 11.354-1.35 11.723 0 22.472 4.166 30.849 11.099l-0.081-0.065c12.464 10.376 20.34 25.896 20.34 43.255 0 0.282-0.002 0.564-0.006 0.846v-0.043 150.090l-154.931 59.068-189.307-36.796c-2.047-0.421-4.4-0.662-6.809-0.662-6.008 0-11.666 1.499-16.621 4.144l0.19-0.093c-148.637 74.561-233.365 159.773-283.718 285.171-0.81 3.052-1.276 6.555-1.276 10.167s0.465 7.116 1.339 10.454l-0.064-0.287 35.344 189.791-58.099 154.447z" />
<glyph unicode="&#xe90f;" glyph-name="profile" d="M512-64c-282.77 0-512 229.23-512 512s229.23 512 512 512c282.77 0 512-229.23 512-512v0c-0.271-282.661-229.339-511.729-511.974-512h-0.026zM512 888.558c-243.314 0-440.558-197.245-440.558-440.558s197.245-440.558 440.558-440.558c243.314 0 440.558 197.245 440.558 440.558v0c-0.271 243.204-197.353 440.287-440.532 440.558h-0.026zM880.164 109.842c-11.393 0.037-21.526 5.403-28.041 13.733l-0.059 0.079c-3.81 4.763-100.971 121.927-340.063 121.927s-336.253-117.165-340.063-121.927c-6.611-8.334-16.737-13.632-28.1-13.632-19.76 0-35.779 16.019-35.779 35.779 0 8.396 2.892 16.117 7.735 22.221l-0.057-0.074c4.763 6.192 120.022 149.075 396.264 149.075s391.501-142.884 396.264-149.075c4.816-6.034 7.728-13.771 7.728-22.189 0-11.483-5.419-21.701-13.838-28.236l-0.081-0.061c-6.039-4.574-13.624-7.403-21.859-7.619l-0.050-0.001zM512 412.279c-98.641 0-178.605 79.964-178.605 178.605s79.964 178.605 178.605 178.605c98.641 0 178.605-79.964 178.605-178.605v0c0-98.641-79.964-178.605-178.605-178.605v0zM512 698.047c-59.184 0-107.163-47.978-107.163-107.163s47.978-107.163 107.163-107.163c59.184 0 107.163 47.978 107.163 107.163v0c0 59.184-47.978 107.163-107.163 107.163v0z" />
<glyph unicode="&#xe910;" glyph-name="receptions" horiz-adv-x="1058" d="M927.315-64h-796.339c-72.219 0.156-130.703 58.736-130.703 130.976 0 12.721 1.813 25.018 5.196 36.647l-0.231-0.926 64.298 228.138c7.867 27.411 32.524 47.204 61.868 47.627l0.048 0.001h781.098v254.809c0 19.728 15.993 35.721 35.721 35.721s35.721-15.993 35.721-35.721v0-285.767l69.060-244.807c3.152-10.704 4.965-23.001 4.965-35.721 0-72.24-58.484-130.821-130.688-130.976h-0.015zM137.168 305.116l-63.345-221.946c-1.331-4.715-2.096-10.129-2.096-15.722 0-32.875 26.435-59.577 59.209-60.006h796.38c32.814 0.43 59.25 27.131 59.25 60.006 0 5.593-0.765 11.007-2.196 16.144l0.1-0.422-63.345 221.946zM110.020 305.116c-19.728 0-35.721 15.993-35.721 35.721v0 488.186c0 72.336 58.64 130.977 130.977 130.977v0h323.87c19.728 0 35.721-15.993 35.721-35.721s-15.993-35.721-35.721-35.721v0h-323.87c-31.839-1.314-57.154-27.445-57.154-59.487 0-0.017 0-0.033 0-0.050v0.003-486.757c0.020-0.451 0.032-0.979 0.032-1.51 0-19.728-15.993-35.721-35.721-35.721-0.849 0-1.691 0.030-2.526 0.088l0.112-0.006zM576.774 78.884h-95.256c-19.728 0-35.721 15.993-35.721 35.721s15.993 35.721 35.721 35.721v0h95.256c19.728 0 35.721-15.993 35.721-35.721s-15.993-35.721-35.721-35.721v0zM663.933 618.984c-9.842 0.118-18.733 4.095-25.249 10.484l0.006-0.006c-6.572 6.408-10.648 15.35-10.648 25.243s4.076 18.834 10.641 25.236l134.794 134.794c6.408 6.572 15.35 10.648 25.243 10.648s18.834-4.076 25.236-10.641l0.007-0.007c6.455-6.463 10.447-15.387 10.447-25.243s-3.992-18.78-10.447-25.243v0l-134.787-134.787c-6.558-6.305-15.419-10.258-25.2-10.477l-0.043-0.001zM865.875 726.147c-0.215-0.001-0.469-0.002-0.723-0.002-72.073 0-130.5 58.427-130.5 130.5 0 36.335 14.85 69.202 38.812 92.863l0.014 0.013c6.362 5.94 14.931 9.587 24.352 9.587 19.728 0 35.721-15.993 35.721-35.721 0-9.421-3.647-17.99-9.606-24.373l0.019 0.021c-10.922-10.725-17.691-25.647-17.691-42.151s6.769-31.426 17.683-42.142l0.009-0.009c11.083-10.916 26.306-17.657 43.103-17.657s32.020 6.741 43.111 17.664l-0.008-0.008c6.25 5.742 14.621 9.262 23.814 9.262s17.564-3.52 23.839-9.285l-0.025 0.023c6.455-6.463 10.447-15.387 10.447-25.243s-3.992-18.78-10.447-25.243v0c-23.523-23.532-56.021-38.091-91.92-38.102h-0.002zM663.933 484.197c-9.966 0.388-18.855 4.696-25.227 11.414l-0.015 0.016c-6.572 6.408-10.648 15.35-10.648 25.243s4.076 18.834 10.641 25.236l0.007 0.007c10.805 10.779 17.491 25.684 17.491 42.151s-6.685 31.372-17.489 42.149l-0.001 0.001c-10.881 10.581-25.754 17.105-42.151 17.105s-31.27-6.524-42.165-17.118l0.014 0.014c-6.539-7.004-15.827-11.369-26.134-11.369-19.728 0-35.721 15.993-35.721 35.721 0 10.307 4.366 19.595 11.348 26.115l0.021 0.019c24.051 22.942 56.695 37.059 92.636 37.059s68.585-14.117 92.689-37.109l-0.053 0.050c23.601-23.757 38.188-56.493 38.188-92.636s-14.587-68.88-38.195-92.643l0.007 0.007c-6.44-6.656-15.298-10.938-25.154-11.427l-0.088-0.003z" />
<glyph unicode="&#xe911;" glyph-name="repair" horiz-adv-x="2002" d="M477.867-64c-1.571-0.073-3.413-0.115-5.265-0.115-33.507 0-63.835 13.613-85.754 35.61l-0.003 0.004-364.089 374.101c-4.206 8.606-6.665 18.726-6.665 29.421 0 37.703 30.564 68.267 68.267 68.267 10.694 0 20.815-2.459 29.826-6.843l-0.405 0.178 364.089-364.089 224.825 224.825c12.158 11.352 28.534 18.322 46.539 18.322 37.703 0 68.267-30.564 68.267-68.267 0-18.004-6.97-34.381-18.359-46.579l0.037 0.040-230.286-229.376c-21.923-22-52.25-35.613-85.757-35.613-1.852 0-3.694 0.042-5.525 0.124l0.26-0.009zM1024 459.378c-0.094 0-0.206-0.001-0.318-0.001-18.747 0-35.706 7.659-47.917 20.019l-0.007 0.007c-12.336 12.351-19.965 29.405-19.965 48.242s7.629 35.891 19.966 48.242l364.088 364.088c12.158 11.352 28.534 18.322 46.539 18.322 37.703 0 68.267-30.564 68.267-68.267 0-18.004-6.97-34.381-18.359-46.579l0.037 0.040-364.089-364.089c-12.218-12.367-29.176-20.026-47.924-20.026-0.112 0-0.224 0-0.335 0.001h0.017zM1024-64c-0.245-0.002-0.535-0.003-0.825-0.003-33.452 0-63.734 13.568-85.645 35.5l-416.883 416.883c-11.352 12.158-18.322 28.534-18.322 46.539 0 37.703 30.564 68.267 68.267 68.267 18.004 0 34.381-6.97 46.579-18.359l-0.040 0.037 406.869-406.869 861.98 861.98c12.158 11.352 28.534 18.322 46.539 18.322 37.703 0 68.267-30.564 68.267-68.267 0-18.004-6.97-34.381-18.359-46.579l0.037 0.040-867.442-871.993c-21.923-22-52.25-35.613-85.757-35.613-1.852 0-3.694 0.042-5.525 0.124l0.26-0.009z" />
<glyph unicode="&#xe912;" glyph-name="services" d="M512 269.395c-98.641 0-178.605 79.964-178.605 178.605s79.964 178.605 178.605 178.605c98.641 0 178.605-79.964 178.605-178.605v0c0-98.641-79.964-178.605-178.605-178.605v0zM512 555.163c-59.184 0-107.163-47.978-107.163-107.163s47.978-107.163 107.163-107.163c59.184 0 107.163 47.978 107.163 107.163v0c0 59.184-47.978 107.163-107.163 107.163v0zM559.628-64h-95.256c-16.661 0.133-30.63 11.502-34.711 26.895l-0.057 0.253-24.29 95.256-87.635 37.15-69.060-56.201c-6.29-5.645-14.649-9.096-23.814-9.096s-17.524 3.451-23.847 9.126l0.033-0.029-95.256 95.256c-5.551 6.329-8.937 14.676-8.937 23.814s3.386 17.485 8.972 23.855l-0.035-0.041 57.153 64.298-37.626 89.064-95.256 26.672c-17.171 2.803-30.117 17.529-30.117 35.279 0 0.994 0.041 1.978 0.12 2.951l-0.008-0.128v95.256c0.011 16.847 11.683 30.965 27.381 34.719l0.243 0.049 95.256 22.385 36.673 89.54-56.201 69.060c-4.96 6.085-7.965 13.934-7.965 22.486 0 9.806 3.952 18.69 10.349 25.145l95.253 95.253c6.329 5.551 14.676 8.937 23.814 8.937s17.485-3.386 23.855-8.972l-0.041 0.035 64.298-57.153 89.064 37.626 25.719 95.256c2.619 17.104 17.227 30.052 34.86 30.052 0.638 0 1.272-0.017 1.901-0.050l-0.088 0.004h95.256c16.404-0.125 30.166-11.288 34.235-26.422l0.057-0.25 25.243-95.256 92.398-37.626 65.727 56.201c6.29 5.645 14.649 9.096 23.814 9.096s17.524-3.451 23.847-9.126l-0.033 0.029 95.256-95.256c5.742-6.25 9.262-14.621 9.262-23.814s-3.52-17.564-9.285-23.839l0.023 0.025-56.201-66.679 37.15-89.54 95.256-24.29c15.646-4.138 27.015-18.107 27.148-34.753v-95.271c0-0.031 0-0.069 0-0.106 0-16.42-11.229-30.218-26.427-34.133l-0.245-0.053-95.256-25.243-37.15-89.54 56.677-66.679c5.645-6.29 9.096-14.649 9.096-23.814s-3.451-17.524-9.126-23.847l0.029 0.033-95.256-95.256c-6.329-5.551-14.676-8.937-23.814-8.937s-17.485 3.386-23.855 8.972l0.041-0.035c-12.86 11.907-43.818 39.055-64.774 56.201l-90.493-37.15-24.29-95.256c-1.931-18.344-17.315-32.515-36.009-32.515-1.072 0-2.133 0.047-3.181 0.138l0.136-0.010zM491.996 7.442h40.007l21.909 86.683c2.848 11.073 10.589 19.91 20.722 24.202l0.234 0.088 127.643 52.391c3.973 1.743 8.604 2.757 13.472 2.757 7.867 0 15.114-2.649 20.9-7.103l-0.080 0.060c13.336-9.526 40.484-32.863 60.964-50.486l47.628 47.628-47.628 58.582c-5.281 6.127-8.497 14.163-8.497 22.951 0 4.956 1.023 9.673 2.869 13.952l-0.088-0.229 52.391 126.214c4.381 10.367 13.217 18.108 24.042 20.902l0.248 0.054 86.683 22.385v39.055l-86.207 21.909c-11.073 2.848-19.91 10.589-24.202 20.722l-0.088 0.234-55.248 128.119c-1.085 3.24-1.711 6.971-1.711 10.849 0 9.474 3.738 18.075 9.819 24.408l-0.011-0.012 47.628 60.011-47.628 47.628-57.63-47.628c-6.233-5.432-14.437-8.744-23.414-8.744-4.776 0-9.334 0.937-13.498 2.638l0.239-0.086-130.977 50.962c-10.311 4.225-18.046 12.899-20.9 23.568l-0.056 0.246-22.385 86.207h-38.102l-23.338-87.635c-2.667-10.899-10.273-19.602-20.252-23.731l-0.228-0.083-125.738-53.343c-4.083-1.733-8.833-2.741-13.817-2.741-9.136 0-17.481 3.384-23.85 8.968l0.041-0.036-57.63 51.438-47.628-47.628 47.628-62.869c4.886-6.059 7.843-13.851 7.843-22.333 0-4.825-0.957-9.426-2.69-13.625l0.087 0.237-49.533-126.69c-4.638-10.63-13.801-18.541-24.986-21.377l-0.257-0.055-85.254-20.004v-39.531l88.112-23.814c10.6-3.008 19.032-10.504 23.249-20.249l0.089-0.231 53.343-125.738c1.733-4.083 2.741-8.833 2.741-13.817 0-9.136-3.384-17.481-8.968-23.85l0.036 0.041-51.438-57.63 47.628-47.628 60.487 47.628c5.949 5.098 13.739 8.202 22.254 8.202 5.049 0 9.842-1.091 14.158-3.050l-0.215 0.087 123.833-50.962c10.459-4.25 18.255-13.145 20.907-24.052l0.049-0.238z" />
<glyph unicode="&#xe913;" glyph-name="sync" horiz-adv-x="1022" d="M35.721 459.907h-2.381c-18.319 1.678-32.556 16.966-32.556 35.58 0 1.224 0.062 2.433 0.182 3.625l-0.012-0.15c28.042 259.018 245.515 458.868 509.665 458.868 207.94 0 386.955-123.845 467.308-301.8l1.304-3.229c1.878-4.209 2.972-9.121 2.972-14.288 0-19.791-16.044-35.835-35.835-35.835-14.624 0-27.202 8.76-32.773 21.318l-0.091 0.229c-69.748 156.858-224.204 264.256-403.744 264.256-227.686 0-415.030-172.72-438.157-394.284l-0.161-1.901c-1.981-18.19-17.188-32.242-35.706-32.387h-0.015zM957.321 602.791h-209.563c-19.728 0-35.721 15.993-35.721 35.721s15.993 35.721 35.721 35.721v0h202.419v202.419c0 19.728 15.993 35.721 35.721 35.721s35.721-15.993 35.721-35.721v0-209.563c-0.268-35.403-28.895-64.030-64.272-64.298h-0.025zM512-64c-0.013 0-0.028 0-0.044 0-208.774 0-388.39 124.84-468.27 303.943l-1.298 3.257c-1.878 4.209-2.972 9.121-2.972 14.288 0 19.791 16.044 35.835 35.835 35.835 14.624 0 27.202-8.76 32.773-21.318l0.091-0.229c69.748-156.858 224.204-264.256 403.744-264.256 227.686 0 415.030 172.72 438.157 394.284l0.161 1.901c1.761 18.327 17.081 32.542 35.721 32.542 19.814 0 35.876-16.062 35.876-35.876 0-1.174-0.056-2.335-0.167-3.48l0.011 0.146c-25.843-259.812-243.287-461.042-507.731-461.042-0.664 0-1.328 0.001-1.991 0.004h0.103zM35.721-16.372c-19.621 0.265-35.456 16.1-35.721 35.696v209.588c0 35.511 28.787 64.298 64.298 64.298h209.563c19.728 0 35.721-15.993 35.721-35.721s-15.993-35.721-35.721-35.721h-202.419v-202.419c-0.265-19.621-16.1-35.456-35.696-35.721h-0.025z" />
<glyph unicode="&#xe914;" glyph-name="user_add" horiz-adv-x="1375" d="M1155.657 345.6c-24.106 0.325-43.561 19.78-43.885 43.855v131.688h-131.657c-24.237 0-43.886 19.648-43.886 43.886s19.648 43.886 43.886 43.886v0h131.657v131.657c0 24.237 19.648 43.886 43.886 43.886s43.886-19.648 43.886-43.886v0-131.657h131.657c24.237 0 43.886-19.648 43.886-43.886s-19.648-43.886-43.886-43.886v0h-131.657v-131.657c-0.325-24.106-19.78-43.561-43.855-43.885h-0.031zM863.086-64c-24.106 0.325-43.561 19.78-43.885 43.855v58.545c0 201.978-163.736 365.714-365.714 365.714s-365.714-163.736-365.714-365.714v0-58.514c-0.325-24.106-19.78-43.561-43.855-43.885h-0.031c-24.106 0.325-43.561 19.78-43.885 43.855v58.545c0 250.453 203.032 453.486 453.486 453.486s453.486-203.032 453.486-453.486v0-58.514c-0.325-24.106-19.78-43.561-43.855-43.885h-0.031zM453.486 404.114c-153.504 0-277.943 124.439-277.943 277.943s124.439 277.943 277.943 277.943c153.504 0 277.943-124.439 277.943-277.943v0c0-153.504-124.439-277.943-277.943-277.943v0zM453.486 872.229c-105.029 0-190.171-85.143-190.171-190.171s85.143-190.171 190.171-190.171c105.029 0 190.171 85.143 190.171 190.171v0c-0.332 104.895-85.276 189.84-190.14 190.171h-0.032z" />
<glyph unicode="&#xe915;" glyph-name="user-remove" horiz-adv-x="1367" d="M1074.907 397.093c-0.061 0-0.133 0-0.204 0-12.052 0-22.954 4.924-30.804 12.869l-0.004 0.004c-7.93 7.94-12.835 18.903-12.835 31.013s4.904 23.073 12.835 31.013v0l93.038 93.038-93.038 93.038c-7.93 7.94-12.835 18.903-12.835 31.013s4.904 23.073 12.835 31.013v0c7.94 7.93 18.903 12.835 31.013 12.835s23.073-4.904 31.013-12.835v0l93.038-93.038 93.038 93.038c7.94 7.93 18.903 12.835 31.013 12.835s23.073-4.904 31.013-12.835v0c8.074-7.873 13.082-18.858 13.082-31.013s-5.008-23.139-13.073-31.004l-93.047-93.047 93.038-93.038c8.074-7.873 13.082-18.858 13.082-31.013s-5.008-23.139-13.073-31.004l-0.009-0.009c-7.94-7.93-18.903-12.835-31.013-12.835s-23.073 4.904-31.013 12.835v0l-93.038 93.038-93.038-93.038c-7.854-7.95-18.756-12.874-30.808-12.874-0.072 0-0.144 0-0.216 0.001h0.011zM863.086-64c-24.106 0.325-43.561 19.78-43.885 43.855v58.545c0 201.978-163.736 365.714-365.714 365.714s-365.714-163.736-365.714-365.714v0-58.514c-0.325-24.106-19.78-43.561-43.855-43.885h-0.031c-24.106 0.325-43.561 19.78-43.885 43.855v58.545c0 250.453 203.032 453.486 453.486 453.486s453.486-203.032 453.486-453.486v0-58.514c-0.325-24.106-19.78-43.561-43.855-43.885h-0.031zM453.486 404.114c-153.504 0-277.943 124.439-277.943 277.943s124.439 277.943 277.943 277.943c153.504 0 277.943-124.439 277.943-277.943v0c0-153.504-124.439-277.943-277.943-277.943v0zM453.486 872.229c-105.029 0-190.171-85.143-190.171-190.171s85.143-190.171 190.171-190.171c105.029 0 190.171 85.143 190.171 190.171v0c-0.332 104.895-85.276 189.84-190.14 190.171h-0.032z" />
</font>
</defs>
</svg>
